{
  "accessors": [
    {
      "name": "Benz005_1_0_positions",
      "componentType": 5126,
      "count": 2420,
      "min": [
        -0.8682000041007996,
        0.1412999927997589,
        -2.113300085067749
      ],
      "max": [
        0.8682000041007996,
        1.2022000551223755,
        2.113800048828125
      ],
      "type": "VEC3",
      "bufferView": 0,
      "byteOffset": 0
    },
    {
      "name": "Benz005_1_0_normals",
      "componentType": 5126,
      "count": 2420,
      "min": [
        -1,
        -1,
        -1
      ],
      "max": [
        1,
        1,
        0.9988375902175903
      ],
      "type": "VEC3",
      "bufferView": 1,
      "byteOffset": 0
    },
    {
      "name": "Benz005_1_0_texcoords",
      "componentType": 5126,
      "count": 2420,
      "min": [
        -7.941299915313721,
        -47.56669998168945
      ],
      "max": [
        44.996299743652344,
        220.67669677734375
      ],
      "type": "VEC2",
      "bufferView": 2,
      "byteOffset": 0
    },
    {
      "name": "Benz005_1_0_indices",
      "componentType": 5123,
      "count": 7608,
      "min": [
        0
      ],
      "max": [
        2419
      ],
      "type": "SCALAR",
      "bufferView": 3,
      "byteOffset": 0
    },
    {
      "name": "Benz005_1_1_positions",
      "componentType": 5126,
      "count": 20,
      "min": [
        -0.8662999868392944,
        0.8034999966621399,
        0.5030999779701233
      ],
      "max": [
        0.8662999868392944,
        0.9093000292778015,
        0.5708000063896179
      ],
      "type": "VEC3",
      "bufferView": 0,
      "byteOffset": 29040
    },
    {
      "name": "Benz005_1_1_normals",
      "componentType": 5126,
      "count": 20,
      "min": [
        -0.37571439146995544,
        0,
        -0.926735520362854
      ],
      "max": [
        0.37571439146995544,
        0,
        -0.926735520362854
      ],
      "type": "VEC3",
      "bufferView": 1,
      "byteOffset": 29040
    },
    {
      "name": "Benz005_1_1_texcoords",
      "componentType": 5126,
      "count": 20,
      "min": [
        0.20000000298023224,
        0.21979999542236328
      ],
      "max": [
        0.387800008058548,
        0.3321000039577484
      ],
      "type": "VEC2",
      "bufferView": 2,
      "byteOffset": 19360
    },
    {
      "name": "Benz005_1_1_indices",
      "componentType": 5123,
      "count": 36,
      "min": [
        0
      ],
      "max": [
        19
      ],
      "type": "SCALAR",
      "bufferView": 3,
      "byteOffset": 15216
    },
    {
      "name": "Benz005_1_2_positions",
      "componentType": 5126,
      "count": 152,
      "min": [
        -0.8015999794006348,
        0.23280000686645508,
        -1.0996999740600586
      ],
      "max": [
        0.8015999794006348,
        0.8805999755859375,
        0.7856000065803528
      ],
      "type": "VEC3",
      "bufferView": 0,
      "byteOffset": 29280
    },
    {
      "name": "Benz005_1_2_normals",
      "componentType": 5126,
      "count": 152,
      "min": [
        -0.9997959733009338,
        -0.9295273423194885,
        -0.0598985031247139
      ],
      "max": [
        0.9997959733009338,
        0.7810772657394409,
        0.13739876449108124
      ],
      "type": "VEC3",
      "bufferView": 1,
      "byteOffset": 29280
    },
    {
      "name": "Benz005_1_2_texcoords",
      "componentType": 5126,
      "count": 152,
      "min": [
        0.25290000438690186,
        0.6471999883651733
      ],
      "max": [
        0.6345000267028809,
        0.7770000100135803
      ],
      "type": "VEC2",
      "bufferView": 2,
      "byteOffset": 19520
    },
    {
      "name": "Benz005_1_2_indices",
      "componentType": 5123,
      "count": 348,
      "min": [
        0
      ],
      "max": [
        151
      ],
      "type": "SCALAR",
      "bufferView": 3,
      "byteOffset": 15288
    },
    {
      "name": "Box007_1_0_positions",
      "componentType": 5126,
      "count": 108,
      "min": [
        -0.691100001335144,
        0.7994999885559082,
        -1.0678999423980713
      ],
      "max": [
        -0.5638999938964844,
        1.131100058555603,
        0.7129999995231628
      ],
      "type": "VEC3",
      "bufferView": 0,
      "byteOffset": 31104
    },
    {
      "name": "Box007_1_0_normals",
      "componentType": 5126,
      "count": 108,
      "min": [
        -0.9992336630821228,
        -0.06880238652229309,
        -0.09770338982343674
      ],
      "max": [
        1,
        0.5830793380737305,
        0.023900935426354408
      ],
      "type": "VEC3",
      "bufferView": 1,
      "byteOffset": 31104
    },
    {
      "name": "Box007_1_0_texcoords",
      "componentType": 5126,
      "count": 108,
      "min": [
        0.26820001006126404,
        0.597599983215332
      ],
      "max": [
        0.6234999895095825,
        0.6617000102996826
      ],
      "type": "VEC2",
      "bufferView": 2,
      "byteOffset": 20736
    },
    {
      "name": "Box007_1_0_indices",
      "componentType": 5123,
      "count": 150,
      "min": [
        0
      ],
      "max": [
        107
      ],
      "type": "SCALAR",
      "bufferView": 3,
      "byteOffset": 15984
    },
    {
      "name": "Box007_1_1_positions",
      "componentType": 5126,
      "count": 24,
      "min": [
        -0.6898000240325928,
        0.815500020980835,
        -1.0377999544143677
      ],
      "max": [
        -0.5698999762535095,
        1.117799997329712,
        0.6782000064849854
      ],
      "type": "VEC3",
      "bufferView": 0,
      "byteOffset": 32400
    },
    {
      "name": "Box007_1_1_normals",
      "componentType": 5126,
      "count": 24,
      "min": [
        -0.9990856051445007,
        0.03159954398870468,
        -0.29959335923194885
      ],
      "max": [
        -0.5755872130393982,
        0.7608831524848938,
        0.0169997438788414
      ],
      "type": "VEC3",
      "bufferView": 1,
      "byteOffset": 32400
    },
    {
      "name": "Box007_1_1_texcoords",
      "componentType": 5126,
      "count": 24,
      "min": [
        0.26820001006126404,
        0.5976999998092651
      ],
      "max": [
        0.6234999895095825,
        0.6617000102996826
      ],
      "type": "VEC2",
      "bufferView": 2,
      "byteOffset": 21600
    },
    {
      "name": "Box007_1_1_indices",
      "componentType": 5123,
      "count": 60,
      "min": [
        0
      ],
      "max": [
        23
      ],
      "type": "SCALAR",
      "bufferView": 3,
      "byteOffset": 16284
    },
    {
      "name": "Object064_1_0_positions",
      "componentType": 5126,
      "count": 328,
      "min": [
        -0.6546000242233276,
        0.7994999885559082,
        -1.5989999771118164
      ],
      "max": [
        0.691100001335144,
        1.1495000123977661,
        0.98089998960495
      ],
      "type": "VEC3",
      "bufferView": 0,
      "byteOffset": 32688
    },
    {
      "name": "Object064_1_0_normals",
      "componentType": 5126,
      "count": 328,
      "min": [
        -1,
        -0.0689019188284874,
        -0.3139001131057739
      ],
      "max": [
        0.9992336630821228,
        0.9531334042549133,
        0.47670799493789673
      ],
      "type": "VEC3",
      "bufferView": 1,
      "byteOffset": 32688
    },
    {
      "name": "Object064_1_0_texcoords",
      "componentType": 5126,
      "count": 328,
      "min": [
        0.26820001006126404,
        0.41999998688697815
      ],
      "max": [
        0.7986000180244446,
        0.6617000102996826
      ],
      "type": "VEC2",
      "bufferView": 2,
      "byteOffset": 21792
    },
    {
      "name": "Object064_1_0_indices",
      "componentType": 5123,
      "count": 468,
      "min": [
        0
      ],
      "max": [
        327
      ],
      "type": "SCALAR",
      "bufferView": 3,
      "byteOffset": 16404
    },
    {
      "name": "Object064_1_1_positions",
      "componentType": 5126,
      "count": 124,
      "min": [
        -0.6299999952316284,
        0.815500020980835,
        -1.5750000476837158
      ],
      "max": [
        0.6897000074386597,
        1.1396000385284424,
        0.9083999991416931
      ],
      "type": "VEC3",
      "bufferView": 0,
      "byteOffset": 36624
    },
    {
      "name": "Object064_1_1_normals",
      "componentType": 5126,
      "count": 124,
      "min": [
        -0.30809980630874634,
        0.03159954398870468,
        -0.31349122524261475
      ],
      "max": [
        0.9990856051445007,
        0.9533072113990784,
        0.47020307183265686
      ],
      "type": "VEC3",
      "bufferView": 1,
      "byteOffset": 36624
    },
    {
      "name": "Object064_1_1_texcoords",
      "componentType": 5126,
      "count": 124,
      "min": [
        0.26820001006126404,
        0.41999998688697815
      ],
      "max": [
        0.7986000180244446,
        0.6617000102996826
      ],
      "type": "VEC2",
      "bufferView": 2,
      "byteOffset": 24416
    },
    {
      "name": "Object064_1_1_indices",
      "componentType": 5123,
      "count": 336,
      "min": [
        0
      ],
      "max": [
        123
      ],
      "type": "SCALAR",
      "bufferView": 3,
      "byteOffset": 17340
    },
    {
      "name": "Object063_1_0_positions",
      "componentType": 5126,
      "count": 1126,
      "min": [
        -0.8095999956130981,
        0,
        -2.0053000450134277
      ],
      "max": [
        0.8026999831199646,
        0.791100025177002,
        2.0808000564575195
      ],
      "type": "VEC3",
      "bufferView": 0,
      "byteOffset": 38112
    },
    {
      "name": "Object063_1_0_normals",
      "componentType": 5126,
      "count": 1126,
      "min": [
        -1,
        -0.9799798727035522,
        -0.9950973987579346
      ],
      "max": [
        0.9996588230133057,
        0.9799798727035522,
        0.9950973987579346
      ],
      "type": "VEC3",
      "bufferView": 1,
      "byteOffset": 38112
    },
    {
      "name": "Object063_1_0_texcoords",
      "componentType": 5126,
      "count": 1126,
      "min": [
        0.04050000011920929,
        0.1256999969482422
      ],
      "max": [
        0.6668999791145325,
        0.9495999813079834
      ],
      "type": "VEC2",
      "bufferView": 2,
      "byteOffset": 25408
    },
    {
      "name": "Object063_1_0_indices",
      "componentType": 5123,
      "count": 6222,
      "min": [
        0
      ],
      "max": [
        1125
      ],
      "type": "SCALAR",
      "bufferView": 3,
      "byteOffset": 18012
    }
  ],
  "asset": {
    "generator": "obj2gltf",
    "version": "2.0"
  },
  "buffers": [
    {
      "name": "A_Car_004",
      "byteLength": 252600,
      "uri": "data:application/octet-stream;base64,"
    }
  ],
  "bufferViews": [
    {
      "name": "bufferView_0",
      "buffer": 0,
      "byteLength": 51624,
      "byteOffset": 0,
      "byteStride": 12,
      "target": 34962
    },
    {
      "name": "bufferView_1",
      "buffer": 0,
      "byteLength": 51624,
      "byteOffset": 51624,
      "byteStride": 12,
      "target": 34962
    },
    {
      "name": "bufferView_2",
      "buffer": 0,
      "byteLength": 34416,
      "byteOffset": 103248,
      "byteStride": 8,
      "target": 34962
    },
    {
      "name": "bufferView_3",
      "buffer": 0,
      "byteLength": 30456,
      "byteOffset": 137664,
      "target": 34963
    },
    {
      "buffer": 0,
      "byteOffset": 168120,
      "byteLength": 15872
    },
    {
      "buffer": 0,
      "byteOffset": 183992,
      "byteLength": 68606
    }
  ],
  "images": [
    {
      "name": "Blue_0829",
      "mimeType": "image/jpeg",
      "bufferView": 4
    },
    {
      "name": "Benz002",
      "mimeType": "image/jpeg",
      "bufferView": 5
    }
  ],
  "materials": [
    {
      "name": "Benz002",
      "pbrMetallicRoughness": {
        "baseColorTexture": {
          "index": 0
        },
        "baseColorFactor": [
          1,
          1,
          1,
          1
        ],
        "metallicFactor": 0,
        "roughnessFactor": 0.97
      },
      "emissiveFactor": [
        0,
        0,
        0
      ],
      "alphaMode": "OPAQUE",
      "doubleSided": false
    },
    {
      "name": "Material__4557",
      "pbrMetallicRoughness": {
        "baseColorFactor": [
          0.7843,
          0.7843,
          0.7843,
          1
        ],
        "metallicFactor": 0,
        "roughnessFactor": 0.99
      },
      "emissiveFactor": [
        0.3922,
        0.3922,
        0.3922
      ],
      "alphaMode": "OPAQUE",
      "doubleSided": false
    },
    {
      "name": "Material__4554",
      "pbrMetallicRoughness": {
        "baseColorFactor": [
          0.1529,
          0.1529,
          0.1529,
          1
        ],
        "metallicFactor": 0,
        "roughnessFactor": 0.99
      },
      "emissiveFactor": [
        0,
        0,
        0
      ],
      "alphaMode": "OPAQUE",
      "doubleSided": false
    },
    {
      "name": "Material__4555",
      "pbrMetallicRoughness": {
        "baseColorFactor": [
          0.1961,
          0.1961,
          0.1961,
          1
        ],
        "metallicFactor": 0,
        "roughnessFactor": 0.97
      },
      "emissiveFactor": [
        0,
        0,
        0
      ],
      "alphaMode": "OPAQUE",
      "doubleSided": false
    },
    {
      "name": "Material__4556",
      "pbrMetallicRoughness": {
        "baseColorTexture": {
          "index": 1
        },
        "baseColorFactor": [
          1,
          1,
          1,
          1
        ],
        "metallicFactor": 0,
        "roughnessFactor": 0.99
      },
      "emissiveFactor": [
        0,
        0,
        0
      ],
      "alphaMode": "OPAQUE",
      "doubleSided": false
    }
  ],
  "meshes": [
    {
      "name": "Benz005_1",
      "primitives": [
        {
          "attributes": {
            "POSITION": 0,
            "NORMAL": 1,
            "TEXCOORD_0": 2
          },
          "indices": 3,
          "material": 0,
          "mode": 4
        },
        {
          "attributes": {
            "POSITION": 4,
            "NORMAL": 5,
            "TEXCOORD_0": 6
          },
          "indices": 7,
          "material": 1,
          "mode": 4
        },
        {
          "attributes": {
            "POSITION": 8,
            "NORMAL": 9,
            "TEXCOORD_0": 10
          },
          "indices": 11,
          "material": 2,
          "mode": 4
        }
      ]
    },
    {
      "name": "Box007_1",
      "primitives": [
        {
          "attributes": {
            "POSITION": 12,
            "NORMAL": 13,
            "TEXCOORD_0": 14
          },
          "indices": 15,
          "material": 2,
          "mode": 4
        },
        {
          "attributes": {
            "POSITION": 16,
            "NORMAL": 17,
            "TEXCOORD_0": 18
          },
          "indices": 19,
          "material": 3,
          "mode": 4
        }
      ]
    },
    {
      "name": "Object064_1",
      "primitives": [
        {
          "attributes": {
            "POSITION": 20,
            "NORMAL": 21,
            "TEXCOORD_0": 22
          },
          "indices": 23,
          "material": 2,
          "mode": 4
        },
        {
          "attributes": {
            "POSITION": 24,
            "NORMAL": 25,
            "TEXCOORD_0": 26
          },
          "indices": 27,
          "material": 3,
          "mode": 4
        }
      ]
    },
    {
      "name": "Object063_1",
      "primitives": [
        {
          "attributes": {
            "POSITION": 28,
            "NORMAL": 29,
            "TEXCOORD_0": 30
          },
          "indices": 31,
          "material": 4,
          "mode": 4
        }
      ]
    }
  ],
  "nodes": [
    {
      "name": "Benz005",
      "mesh": 0
    },
    {
      "name": "Box007",
      "mesh": 1
    },
    {
      "name": "Object064",
      "mesh": 2
    },
    {
      "name": "Object063",
      "mesh": 3
    }
  ],
  "samplers": [
    {
      "magFilter": 9729,
      "minFilter": 9986,
      "wrapS": 10497,
      "wrapT": 10497
    }
  ],
  "scene": 0,
  "scenes": [
    {
      "nodes": [
        0,
        1,
        2,
        3
      ]
    }
  ],
  "textures": [
    {
      "name": "Blue_0829",
      "sampler": 0,
      "source": 0
    },
    {
      "name": "Benz002",
      "sampler": 0,
      "source": 1
    }
  ]
}
